<?xml version="1.0" encoding="UTF-8"?>
<svg id="Ebene_1" data-name="Ebene 1" xmlns="http://www.w3.org/2000/svg" viewBox="0 0 578.64 502.91">
  <defs>
    <style>
      .cls-1 {
        fill: #9d9d9d;
      }

      .cls-2 {
        fill: #343434;
      }

      .cls-3 {
        fill: #fff;
      }

      .cls-4 {
        fill: #b4b4b4;
      }

      .cls-5 {
        fill: #808181;
      }

      .cls-6 {
        fill: #1b1b1b;
      }

      .cls-7 {
        fill: #cdcccc;
      }

      .cls-8 {
        fill: #4e4d4d;
      }

      .cls-9 {
        fill: #676767;
      }

      .cls-10 {
        fill: #20a637;
      }

      .cls-11 {
        fill: none;
      }

      .cls-12 {
        fill: #e7e6e6;
      }

      .cls-13 {
        fill: #515151;
      }

      .cls-14 {
        fill: #6a6a69;
      }

      .cls-15 {
        fill: #9e9e9e;
      }

      .cls-16 {
        fill: #9c9b9b;
      }

      .cls-17 {
        fill: #010101;
      }
    </style>
  </defs>
  <path id="path1020" class="cls-11" d="m254.48,371.82L7.22,438.14"/>
  <path id="path1027" class="cls-8" d="m254.51,371.84l12.95,3.47-12.95-3.47v-226.87l12.95,3.47v226.87"/>
  <path id="path1028" class="cls-9" d="m281.32,144.96v226.87-226.87l-13.4,3.59-.46-.12v226.87l13.86-3.47"/>
  <path id="path1036" class="cls-3" d="m254.97,118.31l13.69-3.67,13.73,3.7-14.47,3.4-12.95-3.43Z"/>
  <path id="path1041" class="cls-13" d="m82.06,438.97V176.6l-26.73-7.16v276.68l26.73-7.16Z"/>
  <path id="path1042" class="cls-13" d="m82.06,438.97l-26.73,7.16,156.58,41.96v-14.32l-129.86-34.8Z"/>
  <path id="path1044" class="cls-15" d="m55.34,446.13L0,431.3V126.95l55.34,14.83v304.35Z"/>
  <path id="path1045" class="cls-15" d="m211.92,183.73v27.67l-156.58-41.96v-27.67l156.58,41.96Z"/>
  <path id="path1046" class="cls-13" d="m82.06,438.97V176.6l-26.73-7.16v276.68l26.73-7.16Z"/>
  <path id="path1047" class="cls-6" d="m0,71.61l267.26,71.61v55.34L0,126.95v-55.34Z"/>
  <path id="path1048" class="cls-15" d="m267.26,226.23v276.68V198.56l-55.34-14.83v304.35l55.34,14.83V226.23v276.68"/>
  <path id="path1049" class="cls-2" d="m82.06,438.97l-26.73,7.16,156.58,41.96v-14.32l-129.86-34.8Z"/>
  <path id="path1050" class="cls-5" d="m82.06,176.6l78.76,21.1v262.36l-78.76-21.1V176.6v262.36"/>
  <path id="path1051" class="cls-5" d="m160.83,460.07V197.71l51.09,13.69v262.36l-51.09-13.69Z"/>
  <path id="path1052" class="cls-12" d="m267.26,0L0,71.61l267.26,71.61,267.26-71.61L267.26,0Z"/>
  <path id="path1053" class="cls-9" d="m534.51,126.95v-55.34l-267.26,71.61v55.34l267.26-71.61Z"/>
  <path id="path1054" class="cls-7" d="m534.51,431.3V126.95l-267.26,71.61v304.35l267.26-71.61Z"/>
  <path id="path1055" class="cls-17" d="m158.6,197.14l4.11,1.08-.02,262.46-4.07-1.15-.02-262.38Z"/>
  <path id="path1059" class="cls-11" d="m254.48,371.82L7.22,438.14"/>
  <path id="path1061" class="cls-7" d="m479.18,446.13l55.34-14.83V126.95l-55.34,14.83v304.35Z"/>
  <path id="path1062" class="cls-7" d="m322.59,183.73v27.67l156.58-41.96v-27.67l-156.58,41.96Z"/>
  <path id="path1063" class="cls-14" d="m452.45,438.97V176.6l26.73-7.16v276.68l-26.73-7.16Z"/>
  <path id="path1064" class="cls-9" d="m534.51,71.61l-267.26,71.61v55.34l267.26-71.61v-55.34Z"/>
  <path id="path1065" class="cls-7" d="m267.26,226.23v276.68V198.56l55.34-14.83v304.35l-55.34,14.83V226.23v276.68"/>
  <path id="path1066" class="cls-4" d="m452.45,438.97l26.73,7.16-156.58,41.96v-14.32l129.86-34.8Z"/>
  <path id="path1067" class="cls-1" d="m452.45,176.6l-78.76,21.1v262.36l78.76-21.1V176.6v262.36"/>
  <path id="path1068" class="cls-16" d="m373.69,460.07V197.71l-51.09,13.69v262.36l51.09-13.69Z"/>
  <path id="path1072" class="cls-17" d="m375.91,197.14l-4.11,1.08.02,262.46,4.07-1.15.02-262.38Z"/>
  <path id="path1076" class="cls-11" d="m280.03,371.82l247.26,66.32"/>
  <path id="path10" class="cls-10" d="m287.56,28.48l28.53-7.39,142.75,36.97-28.53,7.39-142.75-36.97Z"/>
  <path id="path11" class="cls-10" d="m458.83,84.69l-142.75,36.87-28.53-7.39,142.75-36.87,28.53,7.39Z"/>
  <path id="path12" class="cls-10" d="m213.34,121.56l-142.65-36.87,28.53-7.39,142.65,36.87-28.53,7.39Z"/>
</svg>